<svg width="1024" height="1024" viewBox="0 0 1024 1024" fill="none" xmlns="http://www.w3.org/2000/svg">
<path d="M512 1024C795.99 1024 1024 795.99 1024 512C1024 228.01 795.99 0 512 0C228.01 0 0 228.01 0 512C0 795.99 228.01 1024 512 1024Z" fill="url(#paint0_linear_2_16)"/>
<path d="M724.8 284.8L739.2 299.2L299.2 739.2L284.8 724.8L724.8 284.8Z" fill="url(#paint1_linear_2_16)"/>
<path d="M739.2 724.8L724.8 739.2L284.8 299.2L299.2 284.8L739.2 724.8Z" fill="url(#paint2_linear_2_16)"/>
<defs>
<linearGradient id="paint0_linear_2_16" x1="512" y1="0" x2="512" y2="1024" gradientUnits="userSpaceOnUse">
<stop stop-color="#E0E7FF"/>
<stop offset="1" stop-color="#C7D2FE"/>
</linearGradient>
<linearGradient id="paint1_linear_2_16" x1="284.8" y1="284.8" x2="739.2" y2="739.2" gradientUnits="userSpaceOnUse">
<stop stop-color="#A5B4FC"/>
<stop offset="1" stop-color="#4F46E5"/>
</linearGradient>
<linearGradient id="paint2_linear_2_16" x1="284.8" y1="739.2" x2="739.2" y2="284.8" gradientUnits="userSpaceOnUse">
<stop stop-color="#A5B4FC"/>
<stop offset="1" stop-color="#4F46E5"/>
</linearGradient>
</defs>
</svg>
